<svg id="color_ic" xmlns="http://www.w3.org/2000/svg" xmlns:xlink="http://www.w3.org/1999/xlink" width="16.001" height="16" viewBox="0 0 16.001 16">
  <defs>
    <clipPath id="clip-path">
      <rect id="Rectangle_72" data-name="Rectangle 72" width="16.001" height="16" fill="none"/>
    </clipPath>
  </defs>
  <g id="Group_78" data-name="Group 78" clip-path="url(#clip-path)">
    <path id="Path_97" data-name="Path 97" d="M98.834,284.016a2.311,2.311,0,0,0-.558-.091,8.007,8.007,0,0,1-2.76-.968.24.24,0,0,1-.035-.03.607.607,0,0,0,.057-.072c.339-.582.678-1.164,1.014-1.749.268-.467.532-.938.8-1.407a.574.574,0,0,1,.072.028,4.392,4.392,0,0,0,2.069.542q0,1.873,0,3.746Z" transform="translate(-91.491 -268.016)" fill="#2897b0"/>
    <path id="Path_98" data-name="Path 98" d="M282.9,95.451a7.178,7.178,0,0,1,.8,1.9,7.459,7.459,0,0,1,.254,1.439c0,.029-.008.064.03.08v.594h-3.746a5.393,5.393,0,0,0-.085-.819,4.877,4.877,0,0,0-.487-1.321c.092-.049.185-.095.275-.146.706-.406,1.413-.811,2.116-1.221a9.586,9.586,0,0,0,.838-.5" transform="translate(-267.987 -91.463)" fill="#622876"/>
    <path id="Path_99" data-name="Path 99" d="M280.389,191.445h3.746v.625a2.943,2.943,0,0,0-.091.59,8,8,0,0,1-.967,2.76.235.235,0,0,1-.03.035.592.592,0,0,0-.072-.057l-1.778-1.03-1.373-.8a4.528,4.528,0,0,0,.565-2.126" transform="translate(-268.134 -183.447)" fill="#077ccb"/>
    <path id="Path_100" data-name="Path 100" d="M191.449,284.574q0-1.873,0-3.746a4.807,4.807,0,0,0,1.182-.171,6.682,6.682,0,0,0,.92-.374c.052.01.073.052.1.093.4.691.794,1.384,1.2,2.073.2.348.388.708.617,1.041a7.636,7.636,0,0,1-2.276.895,7.982,7.982,0,0,1-1.029.158c-.03,0-.064-.005-.081.031Z" transform="translate(-183.45 -268.574)" fill="#3ec2fe"/>
    <path id="Path_101" data-name="Path 101" d="M.038,99.512a7.779,7.779,0,0,1,.737-3.364,4.381,4.381,0,0,1,.344-.644.181.181,0,0,0,.033.033c.9.517,1.795,1.032,2.689,1.553a2.338,2.338,0,0,1,.5.313,4.457,4.457,0,0,0-.558,2.11H.038" transform="translate(-0.036 -91.514)" fill="#fed13b"/>
    <path id="Path_102" data-name="Path 102" d="M191.482.019a7.721,7.721,0,0,1,4.009,1.08c-.309.466-.566.963-.85,1.443-.35.593-.69,1.191-1.035,1.787a4.4,4.4,0,0,0-2.125-.57q0-1.87,0-3.741" transform="translate(-183.483 -0.018)" fill="#ca2e81"/>
    <path id="Path_103" data-name="Path 103" d="M0,191.454H3.743c.017.207.025.414.052.62a4.5,4.5,0,0,0,.514,1.507q-.889.515-1.778,1.03-.726.422-1.45.849a7.435,7.435,0,0,1-.894-2.277A7.175,7.175,0,0,1,0,191.454" transform="translate(0 -183.456)" fill="#89c147"/>
    <path id="Path_104" data-name="Path 104" d="M99.534,0V3.742a5.266,5.266,0,0,0-.848.091,5.076,5.076,0,0,0-1.291.478c-.009-.019-.017-.038-.027-.056q-.636-1.105-1.272-2.21c-.187-.322-.358-.654-.569-.962a7.021,7.021,0,0,1,1.72-.752A7.57,7.57,0,0,1,99.534,0" transform="translate(-91.534 0)" fill="#fe5178"/>
    <path id="Path_105" data-name="Path 105" d="M242.342,29.114c.345-.6.685-1.194,1.035-1.787.284-.481.541-.977.85-1.443a7.007,7.007,0,0,1,1.37,1,7.9,7.9,0,0,1,1.463,1.774c.027.044.047.091.071.137a9.568,9.568,0,0,1-.838.5c-.7.41-1.41.815-2.116,1.221-.09.052-.183.1-.275.146a4.541,4.541,0,0,0-1.56-1.546" transform="translate(-232.218 -24.802)" fill="#962b7c"/>
    <path id="Path_106" data-name="Path 106" d="M28.819,25.913c.211.308.383.639.569.962q.639,1.1,1.272,2.21c.01.018.018.037.027.056a4.635,4.635,0,0,0-1.559,1.578,2.342,2.342,0,0,0-.5-.313c-.894-.521-1.793-1.036-2.689-1.553a.184.184,0,0,1-.033-.033,6.843,6.843,0,0,1,.985-1.36,7.89,7.89,0,0,1,1.785-1.476c.044-.027.092-.048.138-.071" transform="translate(-24.829 -24.83)" fill="#fe9259"/>
    <path id="Path_107" data-name="Path 107" d="M25.861,244.25q.725-.425,1.45-.849.888-.517,1.778-1.03a5.346,5.346,0,0,0,.752.945,7.311,7.311,0,0,0,.8.614c-.266.469-.529.939-.8,1.407-.335.584-.675,1.166-1.014,1.749a.6.6,0,0,1-.057.071,6.854,6.854,0,0,1-1.383-1.006,7.86,7.86,0,0,1-1.452-1.765c-.027-.044-.049-.091-.073-.137" transform="translate(-24.781 -232.246)" fill="#49b196"/>
    <path id="Path_108" data-name="Path 108" d="M243.684,247.121c-.228-.334-.414-.693-.617-1.041-.4-.689-.8-1.382-1.2-2.073-.024-.041-.045-.083-.1-.093.19-.135.384-.263.568-.406a4.515,4.515,0,0,0,1.022-1.18l1.373.8,1.778,1.03a.59.59,0,0,1,.072.057,6.873,6.873,0,0,1-1.037,1.416,7.557,7.557,0,0,1-1.867,1.492" transform="translate(-231.675 -232.205)" fill="#0aa0e4"/>
    <path id="Path_109" data-name="Path 109" d="M115.34,156.676a3.3,3.3,0,0,1-3.057-2.034,3.225,3.225,0,0,1,.2-2.935c.026.017.051.036.078.052l2.781,1.611q0,1.653,0,3.305" transform="translate(-107.341 -145.37)" fill="#fed13b"/>
    <path id="Path_110" data-name="Path 110" d="M191.445,156.705q0-1.653,0-3.305a.011.011,0,0,0,.009-.013c.145-.081.29-.161.433-.244l2.419-1.405a3.284,3.284,0,0,1-.229,3.667,3.23,3.23,0,0,1-2.631,1.3" transform="translate(-183.446 -145.399)" fill="#0aa0e4"/>
    <path id="Path_111" data-name="Path 111" d="M194.334,113.906l-2.419,1.405c-.143.083-.289.163-.433.244,0-.057-.008-.114-.008-.171q0-1.564,0-3.128a3.235,3.235,0,0,1,2.86,1.649" transform="translate(-183.474 -107.567)" fill="#fd3287"/>
    <path id="Path_112" data-name="Path 112" d="M125.884,112.257q0,1.564,0,3.128c0,.057.005.114.008.171a.011.011,0,0,1-.009.013l-2.781-1.611c-.027-.016-.052-.035-.078-.052a3.239,3.239,0,0,1,2.86-1.648" transform="translate(-117.885 -107.567)" fill="#fe5178"/>
  </g>
</svg>
