<svg xmlns="http://www.w3.org/2000/svg" width="13.342" height="14.362" viewBox="0 0 13.342 14.362">
  <path id="exit" d="M16.336,8.232a.513.513,0,0,0,0-.149V8.037a.513.513,0,0,0-.062-.154h0L15.248,6.345a.513.513,0,0,0-.851.569l.513.744H13.258V2.513A.513.513,0,0,0,12.745,2H3.379a.513.513,0,0,0-.128.056H3.2a.513.513,0,0,0-.1.118A.5.5,0,0,0,3,2.513V13.8a.573.573,0,0,0,.128.339l.046.046a.513.513,0,0,0,.1.067l.062.031h.031l7.181,2.052a.49.49,0,0,0,.662-.482V14.31h1.539a.513.513,0,0,0,.513-.513V8.668h1.605l-.513.744a.513.513,0,1,0,.851.569l1.026-1.539h0a.513.513,0,0,0,.051-.138A.877.877,0,0,0,16.336,8.232Zm-4.1-.59H11.206V4.565a.513.513,0,0,0-.374-.513L7.175,3.026h5.058Zm0,5.642H11.206V8.668h1.026Z" transform="translate(-2.999 -2)" fill="#4d4d4d"/>
</svg>
