<svg xmlns="http://www.w3.org/2000/svg" width="13.144" height="10.669" viewBox="0 0 13.144 10.669">
  <path id="feedback_ic" d="M17.876,11H7.527a1.4,1.4,0,0,0-1.4,1.4v8.891a.384.384,0,0,0,.254.363.361.361,0,0,0,.124.018.373.373,0,0,0,.3-.142l1.778-2.268h9.29a1.4,1.4,0,0,0,1.4-1.4V12.4a1.4,1.4,0,0,0-1.4-1.4Zm-1.27,6.437H8.787a.381.381,0,1,1,0-.762h7.829a.381.381,0,1,1,0,.762Zm0-1.931H8.787a.381.381,0,1,1,0-.762h7.829a.381.381,0,1,1,0,.762Zm0-1.933H11.836a.381.381,0,1,1,0-.762h4.781a.381.381,0,1,1,0,.762Z" transform="translate(-6.13 -11)" fill="#4d4d4d"/>
</svg>
