<svg id="filled_star_ic" xmlns="http://www.w3.org/2000/svg" width="37.157" height="35.688" viewBox="0 0 37.157 35.688">
  <path id="_940ccbb546c4064d84c82652149e0576" data-name="940ccbb546c4064d84c82652149e0576" d="M93.158,12a3.355,3.355,0,0,0-2.15.83A6.678,6.678,0,0,0,89.83,14.1,24.392,24.392,0,0,0,88,17.108c-.567,1.044-1.1,2.083-1.552,2.882s-1.048,1.383-.723,1.142-.41.147-1.307.339-2.052.388-3.221.611a24.8,24.8,0,0,0-3.417.825,7.149,7.149,0,0,0-1.57.741,3.246,3.246,0,0,0-1.32,4.1,6.991,6.991,0,0,0,.848,1.517,24.917,24.917,0,0,0,2.289,2.668c.821.861,1.655,1.691,2.275,2.369s.981,1.428.861,1.044,0,.428-.089,1.343-.259,2.079-.41,3.257a24.51,24.51,0,0,0-.268,3.506,6.76,6.76,0,0,0,.219,1.726A3.22,3.22,0,0,0,84.1,47.68a7.343,7.343,0,0,0,1.709-.33A24.45,24.45,0,0,0,89.045,46c1.071-.513,2.119-1.053,2.953-1.428s1.668-.509,1.267-.509.415.125,1.249.5,1.891.892,2.967,1.4a25.064,25.064,0,0,0,3.248,1.338,7.119,7.119,0,0,0,1.709.326,3.2,3.2,0,0,0,3.471-2.534,6.943,6.943,0,0,0,.21-1.726,24.492,24.492,0,0,0-.29-3.5c-.156-1.178-.335-2.338-.437-3.248s.031-1.735-.094-1.352.25-.366.861-1.048,1.441-1.517,2.257-2.387a24.358,24.358,0,0,0,2.266-2.677,6.544,6.544,0,0,0,.834-1.521,3.209,3.209,0,0,0-1.338-4.086,6.794,6.794,0,0,0-1.57-.732,24.309,24.309,0,0,0-3.422-.8c-1.173-.214-2.329-.406-3.225-.593s-1.633-.567-1.307-.33-.268-.348-.732-1.142-1.008-1.829-1.579-2.873A24.491,24.491,0,0,0,96.5,14.083a6.812,6.812,0,0,0-1.191-1.271A3.328,3.328,0,0,0,93.158,12Z" transform="translate(-74.625 -12)" fill="gold"/>
</svg>
