<svg xmlns="http://www.w3.org/2000/svg" width="37.174" height="35.688" viewBox="0 0 37.174 35.688">
  <g id="half_filled_star_ic" transform="translate(751.996 -3525.852)">
    <g id="Group_10836" data-name="Group 10836" transform="translate(-2948.735 2454.594)">
      <g id="unfilled_star_ic" data-name="unfilled star ic" transform="translate(2196.895 1071.4)">
        <path id="cc7d1a3d932f041a8800e84aab1a15b5" d="M2217.005,1072.9a3.34,3.34,0,0,0-2.141.826,6.634,6.634,0,0,0-1.173,1.266,24.261,24.261,0,0,0-1.821,2.993c-.564,1.04-1.093,2.074-1.546,2.869s-1.044,1.377-.72,1.137-.409.147-1.3.338-2.044.387-3.208.609a24.724,24.724,0,0,0-3.4.822,7.114,7.114,0,0,0-1.564.737,3.231,3.231,0,0,0-1.319,4.078,6.961,6.961,0,0,0,.844,1.51,24.841,24.841,0,0,0,2.278,2.656c.817.857,1.648,1.684,2.266,2.359s.977,1.422.857,1.04,0,.426-.089,1.337-.257,2.069-.409,3.242a24.36,24.36,0,0,0-.267,3.491,6.725,6.725,0,0,0,.219,1.719,3.205,3.205,0,0,0,3.469,2.5,7.31,7.31,0,0,0,1.7-.329,24.334,24.334,0,0,0,3.229-1.349c1.066-.511,2.11-1.048,2.94-1.422s1.662-.506,1.262-.5.413.12,1.244.489,1.884.893,2.953,1.4a24.775,24.775,0,0,0,3.239,1.333,7.01,7.01,0,0,0,1.7.324,3.19,3.19,0,0,0,3.455-2.522,6.913,6.913,0,0,0,.209-1.719,24.41,24.41,0,0,0-.289-3.486c-.155-1.173-.333-2.328-.435-3.233s.031-1.728-.093-1.346.249-.364.857-1.044,1.435-1.51,2.247-2.377a24.2,24.2,0,0,0,2.256-2.665,6.5,6.5,0,0,0,.831-1.515,3.2,3.2,0,0,0-1.34-4.069,6.774,6.774,0,0,0-1.563-.729,24.2,24.2,0,0,0-3.406-.8c-1.168-.213-2.319-.4-3.211-.591s-1.626-.564-1.3-.329-.267-.347-.729-1.137-1-1.821-1.573-2.86a24.421,24.421,0,0,0-1.83-2.976,6.778,6.778,0,0,0-1.186-1.266A3.313,3.313,0,0,0,2217.005,1072.9Zm.018,5.135a23.636,23.636,0,0,1,1.248,2.047c.538.977,1.084,2.026,1.626,2.958a5.722,5.722,0,0,0,4.958,3.584c1.057.222,2.221.4,3.323.609a23.3,23.3,0,0,1,2.34.546q-.739.949-1.567,1.821c-.769.813-1.59,1.653-2.31,2.456a5.756,5.756,0,0,0-1.873,5.823c.12,1.071.293,2.243.444,3.349.124.933.187,1.733.209,2.395a23.98,23.98,0,0,1-2.211-.929c-1.008-.475-2.069-1-3.056-1.439a5.715,5.715,0,0,0-6.125.02c-.982.444-2.03.982-3.033,1.466-.844.4-1.586.711-2.212.933.018-.666.062-1.457.178-2.39.147-1.111.324-2.278.435-3.349a5.776,5.776,0,0,0-1.906-5.823c-.729-.8-1.564-1.63-2.336-2.439a23.726,23.726,0,0,1-1.568-1.812,22.385,22.385,0,0,1,2.33-.565c1.1-.209,2.26-.4,3.313-.622a5.783,5.783,0,0,0,4.948-3.618c.533-.933,1.074-1.986,1.6-2.967.449-.826.871-1.506,1.244-2.057Z" transform="translate(-2198.546 -1072.903)" fill="#989898"/>
      </g>
      <g id="filled_star_ic" data-name="filled star ic" transform="translate(2196.739 1071.258)">
        <path id="Path_20031" data-name="Path 20031" d="M2215.087,1088.957q0-8.849.05-17.7a3.354,3.354,0,0,0-2.009.824,6.676,6.676,0,0,0-1.178,1.27,24.373,24.373,0,0,0-1.83,3.007c-.567,1.044-1.1,2.083-1.552,2.881a9.683,9.683,0,0,1-.751,1.091,10.522,10.522,0,0,1-1.278.39c-.9.192-2.052.388-3.22.611a24.818,24.818,0,0,0-3.416.825,7.148,7.148,0,0,0-1.57.741,3.245,3.245,0,0,0-1.32,4.1,6.981,6.981,0,0,0,.848,1.517,24.907,24.907,0,0,0,2.289,2.667c.821.861,1.655,1.691,2.275,2.369a9.36,9.36,0,0,1,.8,1.059,12.5,12.5,0,0,1-.031,1.327c-.089.915-.259,2.079-.41,3.256a24.451,24.451,0,0,0-.268,3.505,6.756,6.756,0,0,0,.219,1.726,3.219,3.219,0,0,0,3.484,2.5,7.353,7.353,0,0,0,1.708-.33,24.466,24.466,0,0,0,3.236-1.35c1.071-.513,2.118-1.053,2.952-1.428a8.674,8.674,0,0,1,1-.365Q2215.08,1096.2,2215.087,1088.957Z" transform="translate(-2196.739 -1071.258)" fill="gold"/>
      </g>
    </g>
  </g>
</svg>
