<svg xmlns="http://www.w3.org/2000/svg" width="15.851" height="15.851" viewBox="0 0 15.851 15.851">
  <g id="pointer_ic" transform="translate(-0.195 49.97)">
    <circle id="Ellipse_30" data-name="Ellipse 30" cx="3.793" cy="3.793" r="3.793" transform="matrix(0.707, -0.707, 0.707, 0.707, 5.318, -44.606)" fill="#f02"/>
    <path id="Path_449" data-name="Path 449" d="M11.946,141.846l-1.284-2.44a.452.452,0,0,0-.72-.108L7.808,141.43a.45.45,0,0,1-.638,0l-1.2-1.2a.45.45,0,0,1,0-.638l2.133-2.133a.453.453,0,0,0-.108-.72l-2.44-1.284a.451.451,0,0,1,.071-.829l9.784-3.206a.451.451,0,0,1,.57.57l-3.209,9.784A.451.451,0,0,1,11.946,141.846Z" transform="translate(-5.122 -176.207)" fill="#4d4d4d"/>
  </g>
</svg>
