<svg xmlns="http://www.w3.org/2000/svg" width="86.769" height="72.563" viewBox="0 0 86.769 72.563">
  <g id="premium_top_ic" transform="translate(-137 -57.932)">
    <g id="_009ec945152ef138ceb8b2f3b07f091e" data-name="009ec945152ef138ceb8b2f3b07f091e" transform="translate(132.992 48.699)">
      <path id="Path_618" data-name="Path 618" d="M17.687,1035.36a.811.811,0,0,0,0,1.621H82.229a.811.811,0,0,0,0-1.621Zm68.933,0a.811.811,0,0,0,0,1.621h3.346a.811.811,0,0,0,0-1.621Zm-81.8,0a.811.811,0,0,0,0,1.621h9.244a.811.811,0,0,0,0-1.621H4.818Z" transform="translate(0 -964.911)" fill="#2b4255"/>
      <path id="Path_619" data-name="Path 619" d="M21.818,1037.36a.81.81,0,0,0,0,1.621H53.807a.81.81,0,0,0,0-1.621Zm4.863,3.242a.81.81,0,1,0,0,1.621h8.53a.81.81,0,1,0,0-1.621Zm12.53,0a.81.81,0,1,0,0,1.621H50.656a.81.81,0,1,0,0-1.621Zm-7.667,3.242a.81.81,0,1,0,0,1.621h8.291a.81.81,0,1,0,0-1.621H31.544Z" transform="translate(10.556 -963.669)" fill="#038ff4" fill-rule="evenodd"/>
      <path id="Path_620" data-name="Path 620" d="M21.756,1003.34a.5.5,0,0,0-.5.514c0,.352-.149.511-.5.511a.507.507,0,1,0,0,1.013c.337,0,.5.092.5.49a.507.507,0,1,0,1.013,0c0-.36.169-.49.5-.49a.507.507,0,1,0,0-1.013c-.454,0-.5-.259-.5-.511a.507.507,0,0,0-.514-.514Z" transform="translate(10.082 -984.795)" fill="#2b4255" fill-rule="evenodd"/>
      <path id="Path_621" data-name="Path 621" d="M13.48,1015.45a.692.692,0,0,0-.686.7c0,.483-.206.7-.684.7a.7.7,0,1,0,0,1.391c.46,0,.684.128.684.67a.7.7,0,1,0,1.391,0c0-.493.232-.67.687-.67a.7.7,0,1,0,0-1.391c-.619,0-.687-.356-.687-.7a.7.7,0,0,0-.705-.705Zm3.715,11.308a.381.381,0,0,0-.376.389c0,.264-.113.384-.376.384a.381.381,0,1,0,0,.762c.253,0,.376.071.376.37a.382.382,0,1,0,.763,0c0-.271.126-.368.378-.368a.382.382,0,1,0,0-.763c-.34,0-.378-.195-.378-.384a.382.382,0,0,0-.387-.389Z" transform="translate(4.593 -977.274)" fill="#038ff4" fill-rule="evenodd"/>
      <path id="Path_622" data-name="Path 622" d="M13.015,1004.14a.5.5,0,0,0-.5.516c0,.35-.151.511-.5.511a.507.507,0,1,0,0,1.013c.336,0,.5.092.5.488a.507.507,0,1,0,1.013,0c0-.358.169-.488.5-.488a.507.507,0,1,0,0-1.013c-.452,0-.5-.259-.5-.511a.507.507,0,0,0-.514-.516Z" transform="translate(4.654 -984.298)" fill="#2b4255" fill-rule="evenodd"/>
      <path id="Path_623" data-name="Path 623" d="M41.323,999.147a.382.382,0,0,0-.376.389c0,.264-.113.384-.376.384a.381.381,0,1,0,0,.762c.254,0,.376.072.376.37a.382.382,0,1,0,.763,0c0-.271.128-.368.378-.368a.382.382,0,1,0,0-.763c-.34,0-.378-.194-.378-.386a.383.383,0,0,0-.387-.387Z" transform="translate(22.464 -987.398)" fill="#038ff4" fill-rule="evenodd"/>
      <path id="Path_624" data-name="Path 624" d="M35.077,1002.51a.5.5,0,0,0-.5.515c0,.35-.149.511-.5.511a.507.507,0,1,0,0,1.013c.336,0,.5.093.5.488a.507.507,0,1,0,1.013,0c0-.358.169-.488.5-.488a.507.507,0,1,0,0-1.013c-.454,0-.5-.259-.5-.511a.507.507,0,0,0-.514-.515Z" transform="translate(18.354 -985.31)" fill="#2b4255" fill-rule="evenodd"/>
      <path id="Path_625" data-name="Path 625" d="M45.673,1014.79a.381.381,0,0,0-.376.389c0,.262-.113.384-.374.384a.381.381,0,1,0,0,.762c.253,0,.374.071.374.37a.382.382,0,1,0,.763,0c0-.271.128-.368.378-.368a.382.382,0,1,0,0-.764c-.34,0-.378-.194-.378-.386a.383.383,0,0,0-.387-.387Zm10.368,12.622a.692.692,0,0,0-.684.707c0,.481-.206.7-.684.7a.7.7,0,1,0,0,1.391c.46,0,.684.13.684.671a.7.7,0,1,0,1.391,0c0-.493.23-.671.687-.671a.7.7,0,1,0,0-1.391c-.621,0-.687-.355-.687-.7a.7.7,0,0,0-.707-.707Z" transform="translate(25.166 -977.684)" fill="#038ff4" fill-rule="evenodd"/>
      <path id="Path_626" data-name="Path 626" d="M48.138,1004.76a.5.5,0,0,0-.5.516c0,.35-.151.511-.5.511a.507.507,0,1,0,0,1.013c.336,0,.5.092.5.488a.507.507,0,1,0,1.013,0c0-.358.169-.488.5-.488a.507.507,0,1,0,0-1.013c-.452,0-.5-.259-.5-.51a.508.508,0,0,0-.514-.516Z" transform="translate(26.466 -983.913)" fill="#2b4255" fill-rule="evenodd"/>
      <path id="Path_627" data-name="Path 627" d="M27.2,997.595a.392.392,0,0,0-.386.4c0,.271-.117.394-.386.394a.392.392,0,1,0,0,.783c.259,0,.386.073.386.378a.392.392,0,1,0,.783,0c0-.277.13-.378.387-.378a.392.392,0,1,0,0-.783c-.35,0-.387-.2-.387-.394a.392.392,0,0,0-.4-.4Z" transform="translate(13.675 -988.362)" fill="#038ff4" fill-rule="evenodd"/>
      <path id="Path_628" data-name="Path 628" d="M46.625,1036.525a.81.81,0,0,0-.365,1.512l3.415,2.026a5.017,5.017,0,0,1-1.1.3h-.01a5.787,5.787,0,0,1-1.508-.209.81.81,0,1,0-.421,1.564,7.552,7.552,0,0,0,1.909.266h.01a.81.81,0,0,0,.4-.1,7.9,7.9,0,0,0,3.151-.82.81.81,0,0,0,.041-1.415l-5.053-3a.81.81,0,0,0-.462-.12Zm-.118-16.826a.81.81,0,1,0,.259,1.6,12.894,12.894,0,0,1,12.551,5.2.81.81,0,1,0,1.316-.943,14.5,14.5,0,0,0-14.127-5.86Zm15.033,8.364a.81.81,0,0,0-.747,1.122,13,13,0,0,1,.439,1.282.811.811,0,1,0,1.558-.449,14.649,14.649,0,0,0-.493-1.438.81.81,0,0,0-.757-.519Zm.968,4.758a.811.811,0,0,0-.772.848,12.914,12.914,0,0,1-14.9,13.164.812.812,0,1,0-.254,1.6,14.536,14.536,0,0,0,16.771-14.817.811.811,0,0,0-.846-.8Zm-6.8-2.375a2.431,2.431,0,1,1-3.331.851,2.442,2.442,0,0,1,3.331-.851Zm-.827,1.394a.8.8,0,1,0,.377.5.8.8,0,0,0-.377-.5Zm-8.2-5.728a.811.811,0,1,0,.545,1.528.814.814,0,1,1-.143,1.461.812.812,0,1,0-.83,1.4,2.433,2.433,0,1,0,.428-4.385Zm-19.764-11.506a.811.811,0,0,0-.81.811v25.936a.811.811,0,0,0,.81.81h16.21a.811.811,0,0,0,.81-.81v-25.936a.811.811,0,0,0-.81-.811Zm.81,1.621H42.314v24.315H27.725Zm9.677-4.879-4.771.016a.81.81,0,1,0,0,1.621l4.771-.016a.81.81,0,1,0,0-1.621Z" transform="translate(13.721 -979.822)" fill="#2b4255"/>
      <path id="Path_629" data-name="Path 629" d="M27.724,23.81a.81.81,0,1,1-.81-.81A.81.81,0,0,1,27.724,23.81Z" transform="translate(13.72 8.549)" fill="#2b4255"/>
      <path id="Path_630" data-name="Path 630" d="M32.6,1031.14a2.615,2.615,0,1,0,2.6,2.615A2.619,2.619,0,0,0,32.6,1031.14Zm0,1.621a.973.973,0,1,1-.7.29A.973.973,0,0,1,32.6,1032.761Z" transform="translate(16.14 -967.531)" fill="#2b4255"/>
      <path id="Path_631" data-name="Path 631" d="M26.719,1009.36a2.634,2.634,0,0,0-2.615,2.628v15.163a.81.81,0,0,0,1.621,0v-15.163a.979.979,0,0,1,.994-1.005h8.732a.81.81,0,1,0,0-1.621H26.719Zm12.449,0a.811.811,0,0,0,.081,1.621h.963a.81.81,0,1,0,0-1.621h-.963Q39.208,1009.358,39.168,1009.36Zm4.052,0a.811.811,0,1,0,.081,1.621h2.5a.982.982,0,0,1,1,1.007V1050.5a.981.981,0,0,1-1,1.006H26.719a.981.981,0,0,1-.994-1.005v-13.216a.81.81,0,0,0-1.621,0V1050.5a2.633,2.633,0,0,0,2.615,2.627H45.8a2.634,2.634,0,0,0,2.616-2.626v-38.509a2.634,2.634,0,0,0-2.616-2.626H43.3q-.04,0-.081,0Zm-18.319,20.3a.81.81,0,0,0-.8.823v1.645a.81.81,0,1,0,1.621,0v-1.645a.81.81,0,0,0-.823-.823Z" transform="translate(12.479 -981.057)" fill="#2b4255"/>
      <path id="Path_632" data-name="Path 632" d="M27.462,1027.2a.813.813,0,0,0-.439.12l-6.8,4.033a.811.811,0,0,0,.039,1.415,7.9,7.9,0,0,0,3.162.82.813.813,0,0,0,.386.1h.01a7.57,7.57,0,0,0,3.806-1.07.812.812,0,1,0-.833-1.394,5.932,5.932,0,0,1-2.992.843h0a5.414,5.414,0,0,1-1.11-.294l5.166-3.065a.81.81,0,0,0-.386-1.514Z" transform="translate(9.82 -969.979)" fill="#2b4255"/>
      <path id="Path_633" data-name="Path 633" d="M26,1017.435a14.522,14.522,0,0,0-10.138,5.959.812.812,0,0,0,1.321.943,12.888,12.888,0,0,1,14.193-4.824.81.81,0,1,0,.465-1.551,14.6,14.6,0,0,0-5.842-.527ZM14.94,1025.9a.811.811,0,0,0-.731.519,14.58,14.58,0,0,0-.494,1.438.811.811,0,1,0,1.558.449,13.087,13.087,0,0,1,.441-1.281.81.81,0,0,0-.773-1.125Zm-.966,4.759a.81.81,0,0,0-.823.8,14.534,14.534,0,0,0,18.43,14.456.811.811,0,0,0-.438-1.561A12.917,12.917,0,0,1,14.768,1031.5a.81.81,0,0,0-.794-.848Zm6.824-2.375a2.432,2.432,0,1,0,3.333.853,2.445,2.445,0,0,0-3.333-.853Zm.827,1.394a.8.8,0,1,1-.376.495.8.8,0,0,1,.376-.495Zm6.145-5.527A2.432,2.432,0,1,0,31.1,1025a2.445,2.445,0,0,0-3.333-.853Zm.827,1.394a.8.8,0,1,1-.377.5.8.8,0,0,1,.377-.5Z" transform="translate(5.673 -976.099)" fill="#2b4255"/>
    </g>
  </g>
</svg>
