<svg xmlns="http://www.w3.org/2000/svg" width="12.945" height="13.918" viewBox="0 0 12.945 13.918">
  <g id="privacy_ic" transform="translate(0 0)">
    <path id="Path_458" data-name="Path 458" d="M75.937,33.185a.284.284,0,0,1-.126-.029,10.546,10.546,0,0,1-3.3-2.513,10.939,10.939,0,0,1-1.915-3.2,19.809,19.809,0,0,1-1.131-7.29.207.207,0,0,1,.12-.181.288.288,0,0,1,.245-.006,1.619,1.619,0,0,0,.6.069h0a32.708,32.708,0,0,0,4.418-.582c.435-.076.81-.142,1.05-.177a.293.293,0,0,1,.084,0c.267.039.671.113,1.139.2a29.56,29.56,0,0,0,4.249.576,1.8,1.8,0,0,0,.678-.084.289.289,0,0,1,.245.006.207.207,0,0,1,.12.181,20.058,20.058,0,0,1-1.132,7.29,10.932,10.932,0,0,1-1.915,3.2,10.547,10.547,0,0,1-3.3,2.513A.284.284,0,0,1,75.937,33.185Z" transform="translate(-69.466 -19.268)" fill="#4d4d4d"/>
    <g id="Group_156" data-name="Group 156" transform="translate(3.495 2.842)">
      <path id="Path_457" data-name="Path 457" d="M15.978,292.65a.662.662,0,0,0-.662.662v1.654H13.662a.662.662,0,0,0,0,1.323h1.654v1.654a.662.662,0,1,0,1.323,0v-1.654h1.654a.662.662,0,0,0,0-1.323H16.639v-1.654A.662.662,0,0,0,15.978,292.65Z" transform="translate(-13 -292.65)" fill="#fff"/>
    </g>
  </g>
</svg>
