<svg xmlns="http://www.w3.org/2000/svg" width="12.746" height="14.105" viewBox="0 0 12.746 14.105">
  <g id="share_ic" transform="translate(0 -0.001)">
    <path id="Path_454" data-name="Path 454" d="M13.622,11.97a2.062,2.062,0,0,0-1.388.545L7.185,9.577a2.318,2.318,0,0,0,.064-.5,2.318,2.318,0,0,0-.064-.5l4.992-2.91a2.12,2.12,0,1,0-.68-1.551,2.318,2.318,0,0,0,.064.5L6.569,7.53a2.124,2.124,0,1,0,0,3.1l5.042,2.946a2,2,0,0,0-.057.46,2.068,2.068,0,1,0,2.068-2.068Z" transform="translate(-3 -1.999)" fill="#4d4d4d"/>
  </g>
</svg>
