<svg xmlns="http://www.w3.org/2000/svg" width="13.144" height="12.545" viewBox="0 0 13.144 12.545">
  <path id="star_ic" d="M15.133,7.482a.616.616,0,0,0-.525-.723l-3.743-.526L9.158,2.815A.513.513,0,0,0,8.9,2.552a.664.664,0,0,0-.919.263L6.334,6.233l-3.743.526a.4.4,0,0,0-.394.2.636.636,0,0,0,0,.92l2.692,2.63-.657,3.747a.835.835,0,0,0,.066.394.664.664,0,0,0,.919.263l3.349-1.775,3.349,1.775a.492.492,0,0,0,.328.066h.131a.682.682,0,0,0,.525-.789l-.657-3.747,2.692-2.63A.362.362,0,0,0,15.133,7.482Z" transform="translate(-2 -2.459)" fill="#4d4d4d"/>
</svg>
