<svg id="unfilled_star_ic" xmlns="http://www.w3.org/2000/svg" width="37.004" height="35.54" viewBox="0 0 37.004 35.54">
  <path id="cc7d1a3d932f041a8800e84aab1a15b5" d="M20.292,12a3.341,3.341,0,0,0-2.141.826,6.65,6.65,0,0,0-1.173,1.266,24.288,24.288,0,0,0-1.821,2.994c-.564,1.04-1.093,2.075-1.546,2.87s-1.044,1.377-.72,1.137-.409.147-1.3.338-2.044.387-3.208.609a24.7,24.7,0,0,0-3.4.822,7.119,7.119,0,0,0-1.564.737A3.232,3.232,0,0,0,2.1,27.678a6.961,6.961,0,0,0,.844,1.51,24.813,24.813,0,0,0,2.279,2.657c.817.857,1.648,1.684,2.266,2.359s.977,1.422.857,1.04,0,.426-.089,1.337S8,38.651,7.848,39.824a24.407,24.407,0,0,0-.267,3.492A6.732,6.732,0,0,0,7.8,45.035a3.206,3.206,0,0,0,3.47,2.5,7.313,7.313,0,0,0,1.7-.329A24.348,24.348,0,0,0,16.2,45.857c1.066-.511,2.11-1.048,2.941-1.422s1.662-.506,1.262-.5.413.12,1.244.489,1.884.893,2.954,1.4a24.76,24.76,0,0,0,3.239,1.333,7.011,7.011,0,0,0,1.7.324,3.191,3.191,0,0,0,3.456-2.523,6.912,6.912,0,0,0,.209-1.719,24.416,24.416,0,0,0-.289-3.487c-.155-1.173-.333-2.328-.435-3.234s.031-1.728-.093-1.346.249-.364.857-1.044,1.435-1.51,2.248-2.377a24.256,24.256,0,0,0,2.257-2.666,6.516,6.516,0,0,0,.831-1.515A3.2,3.2,0,0,0,37.241,23.5a6.771,6.771,0,0,0-1.564-.729,24.208,24.208,0,0,0-3.407-.8c-1.168-.213-2.319-.4-3.212-.591s-1.626-.564-1.3-.329-.267-.347-.729-1.137-1-1.821-1.573-2.861a24.389,24.389,0,0,0-1.83-2.977,6.784,6.784,0,0,0-1.186-1.266A3.314,3.314,0,0,0,20.292,12Zm.018,5.136a23.712,23.712,0,0,1,1.248,2.048c.538.977,1.084,2.026,1.626,2.959a6.547,6.547,0,0,0,1.959,2.51,6.578,6.578,0,0,0,3,1.075c1.057.222,2.221.4,3.323.609a23.361,23.361,0,0,1,2.341.546q-.739.949-1.568,1.821c-.769.813-1.59,1.653-2.31,2.457A6.5,6.5,0,0,0,28.156,33.8a6.513,6.513,0,0,0-.1,3.185c.12,1.071.293,2.244.444,3.35.124.933.187,1.733.209,2.395q-1.129-.409-2.212-.929c-1.008-.475-2.07-1-3.057-1.439a6.58,6.58,0,0,0-3.065-.88,6.6,6.6,0,0,0-3.061.9c-.982.444-2.03.982-3.034,1.466-.844.4-1.586.711-2.212.933.018-.666.062-1.457.178-2.39.147-1.111.324-2.279.435-3.35a6.569,6.569,0,0,0-.12-3.194,6.547,6.547,0,0,0-1.786-2.63c-.729-.8-1.564-1.63-2.337-2.439a23.7,23.7,0,0,1-1.568-1.813A22.38,22.38,0,0,1,9.2,26.4c1.1-.209,2.261-.4,3.314-.622a6.587,6.587,0,0,0,2.994-1.1,6.557,6.557,0,0,0,1.955-2.519c.533-.933,1.075-1.986,1.6-2.968.449-.826.871-1.506,1.244-2.057Z" transform="translate(-1.836 -12)" fill="#989898"/>
</svg>
